<svg width="886.3512573242188" height="491.6311340332031" xmlns="http://www.w3.org/2000/svg" data-name="Layer 1">

 <title>navigator</title>
 <g class="currentLayer">
  <title>Layer 1</title>
  <circle id="svg_1" fill="#f9a826" r="50.76267" cy="103.24635" cx="232.39589"/>
  <path id="svg_2" fill="#3f3d56" d="m391.58196,259.67826l-249.02644,0a5.07941,5.07941 0 0 1 -0.93059,-0.07373l117.77805,-204.00852a8.24649,8.24649 0 0 1 14.35487,0l79.04385,136.90556l3.78685,6.55094l34.99341,60.62575z"/>
  <polygon id="svg_3" opacity="0.2" points="391.582 259.678 306.558 259.678 348.296 199.052 351.3 194.685 352.802 192.502 356.589 199.052 391.582 259.678"/>
  <path id="svg_4" fill="#3f3d56" d="m530.2381,259.67826l-215.38741,0l41.73786,-60.62578l3.0036,-4.36731l54.38818,-79.007c3.56567,-5.17807 12.14357,-5.50052 16.33577,-0.97665a9.82994,9.82994 0 0 1 0.7832,0.97665l99.1388,144.00009z"/>
  <circle id="svg_5" fill="#009900" r="15.29649" cy="210.81982" cx="593.46332"/>
  <polygon id="svg_6" fill="#3f3d56" points="594.938 256.894 591.805 256.894 593.233 208.516 594.938 256.894"/>
  <polygon id="svg_7" fill="#3f3d56" points="593.509 217.685 596.873 213.031 593.463 218.837 593.095 218.192 593.509 217.685"/>
  <polygon id="svg_8" fill="#3f3d56" points="593.141 222.384 589.777 217.731 593.187 223.536 593.555 222.891 593.141 222.384"/>
  <circle class="selected" id="svg_9" fill="#009900" r="15.29649" cy="210.81982" cx="733.78003"/>
  <polygon id="svg_10" fill="#3f3d56" points="735.254 256.894 732.121 256.894 733.55 208.516 735.254 256.894"/>
  <polygon id="svg_11" fill="#3f3d56" points="733.826 217.685 737.19 213.031 733.78 218.837 733.411 218.192 733.826 217.685"/>
  <polygon id="svg_12" fill="#3f3d56" points="733.458 222.384 730.094 217.731 733.504 223.536 733.872 222.891 733.458 222.384"/>
  <circle id="svg_13" fill="#009900" r="22.59164" cy="188.84647" cx="637.77454"/>
  <polygon id="svg_14" fill="#3f3d56" points="639.952 256.894 635.325 256.894 637.434 185.444 639.952 256.894"/>
  <polygon id="svg_15" fill="#3f3d56" points="637.843 198.985 642.81 192.113 637.775 200.687 637.23 199.734 637.843 198.985"/>
  <polygon id="svg_16" fill="#3f3d56" points="637.298 205.926 632.331 199.054 637.366 207.627 637.911 206.675 637.298 205.926"/>
  <circle id="svg_17" fill="#009900" r="22.59164" cy="188.84647" cx="692.86823"/>
  <polygon id="svg_18" fill="#3f3d56" points="695.046 256.894 690.419 256.894 692.528 185.444 695.046 256.894"/>
  <polygon id="svg_19" fill="#3f3d56" points="692.936 198.985 697.904 192.113 692.868 200.687 692.324 199.734 692.936 198.985"/>
  <polygon id="svg_20" fill="#3f3d56" points="692.392 205.926 687.424 199.054 692.46 207.627 693.004 206.675 692.392 205.926"/>
  <circle id="svg_21" fill="#009900" r="22.59164" cy="188.84647" cx="549.96899"/>
  <polygon id="svg_22" fill="#3f3d56" points="552.146 256.894 547.519 256.894 549.629 185.444 552.146 256.894"/>
  <polygon id="svg_23" fill="#3f3d56" points="550.037 198.985 555.004 192.113 549.969 200.687 549.425 199.734 550.037 198.985"/>
  <polygon id="svg_24" fill="#3f3d56" points="549.493 205.926 544.525 199.054 549.561 207.627 550.105 206.675 549.493 205.926"/>
  <path id="svg_25" fill="#e6e6e6" d="m817.24963,491.63114l-737.26581,0a70.734,70.734 0 1 1 0,-141.468l735.63345,0a27.20538,27.20538 0 0 0 0,-54.41076l-760.11829,0l0,-43.5286l760.11829,0a70.734,70.734 0 1 1 0,141.468l-735.63345,0a27.20538,27.20538 0 1 0 0,54.41076l737.26581,0l0,43.5286z"/>
  <rect id="svg_26" fill="#fff" height="2.17643" width="33.73467" y="272.8999" x="82.70435"/>
  <rect id="svg_27" fill="#fff" height="2.17643" width="33.73467" y="272.8999" x="178.46729"/>
  <rect id="svg_28" fill="#fff" height="2.17643" width="33.73467" y="272.8999" x="274.23022"/>
  <rect id="svg_29" fill="#fff" height="2.17643" width="33.73467" y="272.8999" x="369.99316"/>
  <rect id="svg_30" fill="#fff" height="2.17643" width="33.73467" y="272.8999" x="465.7561"/>
  <rect id="svg_31" fill="#fff" height="2.17643" width="33.73467" y="272.8999" x="561.51904"/>
  <rect id="svg_32" fill="#fff" height="2.17643" width="33.73467" y="272.8999" x="657.28198"/>
  <rect id="svg_33" fill="#fff" height="2.17643" width="33.73467" y="272.8999" x="753.04486"/>
  <rect id="svg_34" fill="#fff" height="2.17643" width="33.73467" y="370.83926" x="82.70435"/>
  <rect id="svg_35" fill="#fff" height="2.17643" width="33.73467" y="370.83926" x="178.46729"/>
  <rect id="svg_36" fill="#fff" height="2.17643" width="33.73467" y="370.83926" x="274.23022"/>
  <rect id="svg_37" fill="#fff" height="2.17643" width="33.73467" y="370.83926" x="369.99316"/>
  <rect id="svg_38" fill="#fff" height="2.17643" width="33.73467" y="370.83926" x="465.7561"/>
  <rect id="svg_39" fill="#fff" height="2.17643" width="33.73467" y="370.83926" x="561.51904"/>
  <rect id="svg_40" fill="#fff" height="2.17643" width="33.73467" y="370.83926" x="657.28198"/>
  <rect id="svg_41" fill="#fff" height="2.17643" width="33.73467" y="370.83926" x="753.04486"/>
  <rect id="svg_42" fill="#fff" height="2.17643" width="33.73467" y="468.77863" x="82.70435"/>
  <rect id="svg_43" fill="#fff" height="2.17643" width="33.73467" y="468.77863" x="178.46729"/>
  <rect id="svg_44" fill="#fff" height="2.17643" width="33.73467" y="468.77863" x="274.23022"/>
  <rect id="svg_45" fill="#fff" height="2.17643" width="33.73467" y="468.77863" x="369.99316"/>
  <rect id="svg_46" fill="#fff" height="2.17643" width="33.73467" y="468.77863" x="465.7561"/>
  <rect id="svg_47" fill="#fff" height="2.17643" width="33.73467" y="468.77863" x="561.51904"/>
  <rect id="svg_48" fill="#fff" height="2.17643" width="33.73467" y="468.77863" x="657.28198"/>
  <rect id="svg_49" fill="#fff" height="2.17643" width="33.73467" y="468.77863" x="753.04486"/>
  <path id="svg_50" fill="none" d="m575.18579,94.69504a28.99191,28.99191 0 0 0 -6.04507,-5.70351l12.62379,0a21.11412,21.11412 0 0 0 -6.57872,5.70351z"/>
  <path id="svg_51" fill="none" d="m533.91888,88.99157l2.17616,0c-0.46752,0.32845 -0.93648,0.65539 -1.38307,1.01036c-0.25489,-0.34455 -0.52702,-0.675 -0.79309,-1.01036z"/>
  <path id="svg_52" fill="#e6e6e6" d="m591.86771,86.37413a20.83292,20.83292 0 0 1 10.12924,2.6174l-20.23244,0a20.74188,20.74188 0 0 1 10.1032,-2.6174z"/>
  <path id="svg_53" fill="#e6e6e6" d="m552.60674,83.75674a28.623,28.623 0 0 1 16.534,5.23479l-33.0457,0a28.61637,28.61637 0 0 1 16.5117,-5.23479z"/>
  <path id="svg_54" fill="#e6e6e6" d="m330.21169,50.62301a53.65615,53.65615 0 0 1 105.27431,-11.3126c0.65,-0.02332 1.29951,-0.04944 1.95522,-0.04944a53.66909,53.66909 0 0 1 51.48218,38.53833a37.92036,37.92036 0 0 1 44.99548,11.19227l-167.372,0a36.29323,36.29323 0 0 1 -36.37313,-37.57718q0.0161,-0.39512 0.03794,-0.79138z"/>
  <path id="svg_55" fill="none" d="m620.76268,133.87079a28.99214,28.99214 0 0 1 6.04507,-5.70351l-12.62379,0a21.11388,21.11388 0 0 1 6.57872,5.70351z"/>
  <path id="svg_56" fill="none" d="m662.02963,128.16728l-2.17616,0c0.46752,0.32845 0.93647,0.65539 1.38306,1.01036c0.25486,-0.34451 0.527,-0.67496 0.7931,-1.01036z"/>
  <path id="svg_57" fill="#e6e6e6" d="m604.08077,125.54988a20.83286,20.83286 0 0 0 -10.12924,2.6174l20.23243,0a20.74171,20.74171 0 0 0 -10.10319,-2.6174z"/>
  <path id="svg_58" fill="#e6e6e6" d="m643.34174,122.93248a28.62293,28.62293 0 0 0 -16.534,5.2348l33.04569,0a28.61635,28.61635 0 0 0 -16.51169,-5.2348z"/>
  <path id="svg_59" fill="#e6e6e6" d="m865.73678,89.79875a53.65615,53.65615 0 0 0 -105.27431,-11.31259c-0.65,-0.02333 -1.29951,-0.04945 -1.95522,-0.04945a53.66909,53.66909 0 0 0 -51.48218,38.53833a37.92038,37.92038 0 0 0 -44.99544,11.19224l167.372,0a36.29324,36.29324 0 0 0 36.37314,-37.57719q-0.01614,-0.39507 -0.03799,-0.79134z"/>
 </g>
 <g>
  <title>Layer 2</title>
  <rect fill="none" y="0" x="0" height="100%" width="100%" id="backgroundrect"/>
  <g id="svg_116">
   <rect fill="none" y="25.99998" x="197" height="491.63113" width="886.35126" id="svg_113"/>
   <g id="svg_115" class="currentLayer">
    <title>Layer 1</title>
    <rect transform="rotate(-180 928.553 1044.45)" id="svg_112" fill="#f9a826" height="5" width="118" y="1659.48546" x="1349.26685"/>
    <rect transform="rotate(-180 920.459 1034.45)" id="svg_111" fill="#f9a826" height="5" width="118" y="1644.48546" x="1335.1731"/>
    <rect transform="rotate(-180 926.647 1039.3)" id="svg_110" fill="#f9a826" height="5" width="118" y="1644.32921" x="1348.3606"/>
    <rect transform="rotate(-180 711.723 991.226)" id="svg_109" fill="#3f3d56" height="29.08849" width="4.09697" y="1569.16331" x="1045.03595"/>
    <rect transform="rotate(-180 591.682 1093.24)" id="svg_108" fill="#3f3d56" height="13.9297" width="35.64365" y="1729.76439" x="849.20068"/>
    <rect transform="rotate(-180 738.353 1119.46)" id="svg_107" fill="#3f3d56" height="15.56849" width="175.76006" y="1768.27611" x="999.1499"/>
    <polygon id="svg_106" fill="#e2e2e2" points="330.67999267578125,462.8619689941406 372.8789978027344,462.8619689941406 372.8789978027344,409.80596923828125 341.3320007324219,409.80596923828125 330.67999267578125,436.5649719238281 330.67999267578125,462.8619689941406 "/>
    <rect transform="rotate(-180 673.621 1037.93)" id="svg_105" fill="#fff" height="18.02667" width="18.02667" y="1644.75243" x="980.91833"/>
    <polygon id="svg_104" fill="#fff" points="334.7769775390625,431.31500244140625 346.2489929199219,431.31500244140625 346.2489929199219,413.2889709472656 341.3320007324219,413.2889709472656 334.7769775390625,431.31500244140625 "/>
    <rect transform="rotate(-180 685.912 1084.23)" id="svg_103" fill="#3f3d56" height="7.78425" width="4.09697" y="1719.31725" x="1006.31958"/>
    <path transform="rotate(180 640.436 1051.04)" id="svg_102" fill="#3f3d56" d="m938.10501,1669.53906l0.20485,0a3.89212,3.89212 0 0 1 3.89212,3.89212l0,0a3.89212,3.89212 0 0 1 -3.89212,3.89212l-0.20485,0a0,0 0 0 1 0,0l0,-7.78425a0,0 0 0 1 0,0.00001z"/>
    <path id="svg_101" fill="#3f3d56" d="m495.17362,462.86196l-0.20485,0a-3.89212,-3.89212 0 0 1 -3.89212,-3.89212l0,0a-3.89212,-3.89212 0 0 1 3.89212,-3.89212l0.20485,0a0,0 0 0 1 0,0l0,7.78425a0,0 0 0 1 0,-0.00001z"/>
    <path id="svg_100" fill="#e2e2e2" d="m314.29236,455.01893a20.2704,20.2704 0 0 0 -15.75558,7.843l-8.00685,0l7.78425,-21.68366l36.25819,-7.151l-1.02424,28.83466l-3.50013,0a20.27042,20.27042 0 0 0 -15.75564,-7.843z"/>
    <circle id="svg_99" fill="#3f3d56" r="17.82182" cy="467.98317" cx="313.88267"/>
    <circle id="svg_98" fill="#e2e2e2" r="9.37991" cy="467.98317" cx="313.88267"/>
    <circle id="svg_97" fill="#3f3d56" r="15.56849" cy="470.03166" cx="474.89362"/>
    <circle id="svg_96" fill="#e2e2e2" r="8.19394" cy="470.03166" cx="474.89362"/>
    <rect transform="rotate(-180 710.904 1060.67)" id="svg_95" fill="#3f3d56" height="62.06911" width="8.60364" y="1656.83836" x="1041.55353"/>
    <rect transform="rotate(-180 826.028 1103.89)" id="svg_94" fill="#3f3d56" height="3.68727" width="123.72853" y="1750.864" x="1156.67841"/>
    <rect transform="rotate(-180 643.713 1059.65)" id="svg_93" fill="#3f3d56" height="1.63879" width="4.09697" y="1685.51732" x="943.02136"/>
    <path transform="rotate(20.7174 283.941 -243.623)" id="svg_92" fill="#3f3d56" d="m539.82155,392.0813l0.20485,0a3.89212,3.89212 0 0 1 3.89212,3.89212l0,0a3.89212,3.89212 0 0 1 -3.89212,3.89212l-0.20485,0a0,0 0 0 1 0,0l0,-7.78425a0,0 0 0 1 0,0.00001z"/>
    <rect transform="rotate(-180 846.428 1095.33)" id="svg_91" fill="#f9a826" height="5" width="118" y="1737.36034" x="1190.14178"/>
    <rect transform="rotate(-180 860.428 1085.33)" id="svg_90" fill="#f9a826" height="5" width="118" y="1722.36034" x="1211.14178"/>
    <rect transform="rotate(-180 850.428 1077.33)" id="svg_89" fill="#f9a826" height="5" width="118" y="1710.36034" x="1196.14178"/>
    <rect transform="rotate(-180 864.428 1067.33)" id="svg_88" fill="#f9a826" height="5" width="118" y="1695.36034" x="1217.14178"/>
   </g>
  </g>
 </g>
</svg>